<?xml version="1.0" encoding="utf-8"?>
<!-- Generator: Adobe Illustrator 25.2.1, SVG Export Plug-In . SVG Version: 6.00 Build 0)  -->
<svg version="1.1" id="Layer_1" xmlns="http://www.w3.org/2000/svg" xmlns:xlink="http://www.w3.org/1999/xlink" x="0px" y="0px"
	 viewBox="0 0 1920 907" style="enable-background:new 0 0 1920 907;" xml:space="preserve">
<style type="text/css">
	.st0{fill:#09395A;}
	.st1{fill:#BCBCBC;}
</style>
<image style="overflow:visible;" width="1920" height="907" xlink:href="../../../portfolio/assets/images/about.png" >
</image>
<rect y="0" class="st0" width="1920" height="907"/>
<path class="st1" d="M1253.9,426.8c112.5-32.3,230.6,32.3,263.6,145.6c29.9,105.4-25.2,216.4-126.7,256.5
	c-102.3,39.3-218-5.5-267.6-103.9c-45.6-90.5-22.8-222.7,97.6-285.7l-35.4-91.3c-2.4,2.4-3.1,3.9-4.7,6.3
	c-32.3,44.9-63.7,89.7-96,133.8c-35.4,49.6-70.8,99.2-106.2,148.7c-4.7,7.9-14.2,12.6-23.6,11.8c-42.5,0-85,0-127.5,0h-8.7
	c-7.9,70-40.9,125.1-100.7,162.1c-47.2,29.9-103.9,39.3-158.2,26.8C448.8,812.4,378,703.8,397.7,592c22.8-115.7,135.4-192,251-169.2
	c5.5,0.8,11.8,2.4,17.3,3.9c0.8-2.4,2.4-3.9,3.1-6.3c13.4-33.8,26-67.7,39.3-100.7c1.6-3.9,0.8-7.9-1.6-11
	c-11.8-15-23.6-30.7-35.4-46.4c-2.4-3.1-5.5-4.7-9.4-4.7c-6.3,0-13.4,0-19.7,0c-9.4,0-17.3-7.9-17.3-17.3l0,0
	c0-9.4,7.1-17.3,16.5-17.3h0.8c41.7,0,82.6,0,124.3,0c9.4,0,17.3,7.1,17.3,16.5v0.8c0,9.4-7.1,17.3-16.5,17.3h-0.8
	c-17.3,0-34.6,0-53.5,0c3.9,4.7,7.9,9.4,11,15c8.7,17.3,22,20.5,40.9,20.5c129.1-0.8,258.9-0.8,388-0.8h11c-1.6-3.9-2.4-6.3-3.1-9.4
	c-9.4-23.6-18.9-48-27.5-71.6c-0.8-4.7-5.5-7.9-9.4-7.1c-22.8,0-45.6,0-68.5,0c-8.7,0.8-15.7-4.7-18.1-13.4
	c-2.4-7.1,0.8-15,7.1-18.9c3.1-0.8,7.9-2.4,12.6-2.4c26.8,0,53.5,0,81.1,0c13.4,0,18.1,3.1,22.8,15.7
	c29.9,77.9,60.6,155.8,90.5,234.5C1252.3,422.1,1253.1,424.4,1253.9,426.8z M1234.2,474c-84.2,42.5-120.4,143.2-81.8,229
	c40.1,88.9,144,129.1,232.9,88.9c0.8-0.8,1.6-0.8,3.1-1.6c88.1-40.9,126.7-146.4,85-234.5c-0.8-0.8-0.8-2.4-1.6-3.1
	c-45.6-92.1-146.4-112.5-204.6-91.3c0.8,2.4,1.6,5.5,3.1,7.9c19.7,51.2,39.3,101.5,59,152.7c4.7,8.7,1.6,19.7-7.1,24.4
	c-0.8,0-1.6,0.8-1.6,0.8c-10.2,3.9-19.7-0.8-23.6-12.6c-11.8-30.7-23.6-60.6-35.4-91.3L1234.2,474z M653.4,461.4
	c-69.2-20.5-144,4.7-186.5,63c-48,62.2-48.8,149.5-1.6,212.5c47.2,63.7,131.4,87.3,205.4,59c61.4-23.6,115.7-95.2,111-147.2h-7.9
	c-54.3,0-107.8,0-162.1,0c-18.9,0-26.8-11-19.7-28.3c16.5-43.3,33.8-87.3,50.4-130.6C646.4,480.3,649.5,471.6,653.4,461.4
	L653.4,461.4z M766,329.2l194.4,271.5l194.4-271.5H766z M735.3,348.1c-1.6,3.1-2.4,4.7-3.1,7.1c-10.2,25.2-19.7,51.2-29.9,76.3
	c-3.9,9.4-3.9,9.4,5.5,13.4c1.6,0.8,3.1,1.6,4.7,2.4c40.9,23.6,72.4,59.8,89.7,103.9c7.9,19.7,11.8,40.1,17.3,61.4h104.7
	L735.3,348.1z M781.7,612.5C777,548,729,492.9,685.7,474l-53.5,138.5C632.2,612.5,781.7,612.5,781.7,612.5z"/>
</svg>
