<?xml version="1.0" encoding="utf-8"?>
<!-- Generator: Adobe Illustrator 25.2.1, SVG Export Plug-In . SVG Version: 6.00 Build 0)  -->
<svg version="1.1" id="Layer_1" xmlns="http://www.w3.org/2000/svg" xmlns:xlink="http://www.w3.org/1999/xlink" x="0px" y="0px"
	 viewBox="0 0 143.8 85.6" style="enable-background:new 0 0 143.8 85.6;" xml:space="preserve">
<style type="text/css">
	.st0{fill:#BCBCBC;}
</style>
<path class="st0" d="M109.2,32.7c14.3-4.1,29.3,4.1,33.5,18.5c3.8,13.4-3.2,27.5-16.1,32.6c-13,5-27.7-0.7-34-13.2
	c-5.8-11.5-2.9-28.3,12.4-36.3l-4.5-11.6c-0.3,0.3-0.4,0.5-0.6,0.8c-4.1,5.7-8.1,11.4-12.2,17c-4.5,6.3-9,12.6-13.5,18.9
	c-0.6,1-1.8,1.6-3,1.5c-5.4,0-10.8,0-16.2,0h-1.1c-1,8.9-5.2,15.9-12.8,20.6c-6,3.8-13.2,5-20.1,3.4C6.9,81.7-2.1,67.9,0.4,53.7
	C3.3,39,17.6,29.3,32.3,32.2c0.7,0.1,1.5,0.3,2.2,0.5c0.1-0.3,0.3-0.5,0.4-0.8c1.7-4.3,3.3-8.6,5-12.8c0.2-0.5,0.1-1-0.2-1.4
	c-1.5-1.9-3-3.9-4.5-5.9c-0.3-0.4-0.7-0.6-1.2-0.6c-0.8,0-1.7,0-2.5,0c-1.2,0-2.2-1-2.2-2.2c0,0,0,0,0,0c0-1.2,0.9-2.2,2.1-2.2
	c0,0,0.1,0,0.1,0c5.3,0,10.5,0,15.8,0c1.2,0,2.2,0.9,2.2,2.1c0,0,0,0.1,0,0.1c0,1.2-0.9,2.2-2.1,2.2c0,0-0.1,0-0.1,0
	c-2.2,0-4.4,0-6.8,0c0.5,0.6,1,1.2,1.4,1.9c1.1,2.2,2.8,2.6,5.2,2.6c16.4-0.1,32.9-0.1,49.3-0.1h1.4c-0.2-0.5-0.3-0.8-0.4-1.2
	c-1.2-3-2.4-6.1-3.5-9.1c-0.1-0.6-0.7-1-1.2-0.9c-2.9,0-5.8,0-8.7,0c-1.1,0.1-2-0.6-2.3-1.7c-0.3-0.9,0.1-1.9,0.9-2.4
	C83,0.2,83.6,0,84.2,0c3.4,0,6.8,0,10.3,0c1.7,0,2.3,0.4,2.9,2c3.8,9.9,7.7,19.8,11.5,29.8C109,32.1,109.1,32.4,109.2,32.7z
	 M106.7,38.7C96,44.1,91.4,56.9,96.3,67.8c5.1,11.3,18.3,16.4,29.6,11.3c0.1-0.1,0.2-0.1,0.4-0.2c11.2-5.2,16.1-18.6,10.8-29.8
	c-0.1-0.1-0.1-0.3-0.2-0.4c-5.8-11.7-18.6-14.3-26-11.6c0.1,0.3,0.2,0.7,0.4,1c2.5,6.5,5,12.9,7.5,19.4c0.6,1.1,0.2,2.5-0.9,3.1
	c-0.1,0-0.2,0.1-0.2,0.1c-1.3,0.5-2.5-0.1-3-1.6c-1.5-3.9-3-7.7-4.5-11.6L106.7,38.7z M32.9,37.1c-8.8-2.6-18.3,0.6-23.7,8
	C3.1,53,3,64.1,9,72.1c6,8.1,16.7,11.1,26.1,7.5c7.8-3,14.7-12.1,14.1-18.7h-1c-6.9,0-13.7,0-20.6,0c-2.4,0-3.4-1.4-2.5-3.6
	c2.1-5.5,4.3-11.1,6.4-16.6C32,39.5,32.4,38.4,32.9,37.1L32.9,37.1z M47.2,20.3l24.7,34.5l24.7-34.5L47.2,20.3z M43.3,22.7
	c-0.2,0.4-0.3,0.6-0.4,0.9c-1.3,3.2-2.5,6.5-3.8,9.7c-0.5,1.2-0.5,1.2,0.7,1.7c0.2,0.1,0.4,0.2,0.6,0.3c5.2,3,9.2,7.6,11.4,13.2
	c1,2.5,1.5,5.1,2.2,7.8h13.3L43.3,22.7z M49.2,56.3c-0.6-8.2-6.7-15.2-12.2-17.6l-6.8,17.6H49.2z"/>
</svg>
