<svg id="Layer_1" data-name="Layer 1" xmlns="http://www.w3.org/2000/svg" viewBox="0 0 56.31 33.6"><defs><style>.cls-1{fill:#8d69f8;}</style></defs><path class="cls-1" d="M42.8,12.83a10.56,10.56,0,1,1-1.66.64L39.38,8.92l-.24.3c-1.59,2.23-3.19,4.45-4.79,6.68l-5.3,7.4a1.27,1.27,0,0,1-1.15.58c-2.11,0-4.22,0-6.34,0h-.44a10.45,10.45,0,0,1-5,8.09,10.17,10.17,0,0,1-7.88,1.32,10.57,10.57,0,0,1,4.43-20.67c.29.06.58.13.86.21a3.09,3.09,0,0,0,.14-.32c.65-1.67,1.29-3.35,1.95-5a.49.49,0,0,0-.08-.55c-.6-.76-1.19-1.52-1.76-2.3a.51.51,0,0,0-.48-.23h-1a.89.89,0,0,1-.87-.88h0a.86.86,0,0,1,.84-.88h0q3.11,0,6.19,0a.85.85,0,0,1,.86.84v0a.86.86,0,0,1-.83.87H15.83a5.29,5.29,0,0,1,.57.75,1.93,1.93,0,0,0,2,1c6.44,0,12.89,0,19.33,0h.55c-.07-.18-.1-.32-.16-.46-.46-1.19-.93-2.38-1.38-3.58a.43.43,0,0,0-.49-.34c-1.13,0-2.26,0-3.4,0A.88.88,0,0,1,32,1.11a.83.83,0,0,1,.35-.95A1.33,1.33,0,0,1,33,0c1.34,0,2.68,0,4,0a1,1,0,0,1,1.14.77h0l4.5,11.66C42.69,12.57,42.74,12.69,42.8,12.83Zm-1,2.34A8.78,8.78,0,0,0,49.35,31l.14-.07a8.78,8.78,0,0,0,4.23-11.68s0-.09-.07-.14a8.62,8.62,0,0,0-10.19-4.56l.15.4c1,2.53,2,5.05,2.93,7.58a.9.9,0,0,1-.36,1.22l-.1,0a.9.9,0,0,1-1.16-.51l0-.12c-.59-1.51-1.17-3-1.76-4.54Zm-28.92-.62a8.53,8.53,0,0,0-9.3,3.11A8.79,8.79,0,0,0,13.75,31.18c3-1.17,5.74-4.74,5.51-7.31H10.8c-1,0-1.31-.53-1-1.42q1.24-3.24,2.51-6.5ZM18.47,8l9.7,13.51L37.87,8ZM17,8.91l-.15.34-1.5,3.8c-.18.46-.19.46.29.66a2,2,0,0,1,.25.14A10.21,10.21,0,0,1,20.34,19c.38,1,.58,2,.88,3h5.2Zm2.31,13.17a8.65,8.65,0,0,0-4.77-6.91l-2.65,6.91Z" transform="translate(-0.01 0.03)"/></svg>