<?xml version="1.0" encoding="utf-8"?>
<!-- Generator: Adobe Illustrator 25.2.1, SVG Export Plug-In . SVG Version: 6.00 Build 0)  -->
<svg version="1.1" id="Layer_1" xmlns="http://www.w3.org/2000/svg" xmlns:xlink="http://www.w3.org/1999/xlink" x="0px" y="0px"
	 viewBox="0 0 56.3 33.6" style="enable-background:new 0 0 56.3 33.6;" xml:space="preserve">
<style type="text/css">
	.st0{fill:#FEA52F;}
</style>
<path class="st0" d="M42.8,12.8c5.6-1.6,11.5,1.6,13.1,7.2c1.5,5.2-1.2,10.8-6.3,12.8c-5.1,2-10.9-0.3-13.3-5.2
	c-2.6-5.3-0.4-11.6,4.8-14.2l-1.8-4.5c-0.1,0.1-0.2,0.2-0.2,0.3c-1.6,2.2-3.2,4.4-4.8,6.7c-1.8,2.5-3.5,4.9-5.3,7.4
	c-0.3,0.4-0.7,0.6-1.2,0.6c-2.1,0-4.2,0-6.3,0h-0.4c-0.3,3.3-2.1,6.3-5,8.1c-2.3,1.5-5.2,2-7.9,1.3C2.7,32-0.8,26.6,0.2,21.1
	c1.1-5.8,6.7-9.6,12.5-8.4c0.3,0.1,0.6,0.1,0.9,0.2c0-0.1,0.1-0.2,0.1-0.3c0.6-1.7,1.3-3.4,1.9-5c0.1-0.2,0.1-0.4-0.1-0.5
	c-0.6-0.8-1.2-1.5-1.8-2.3c-0.1-0.2-0.3-0.3-0.5-0.2c-0.3,0-0.7,0-1,0c-0.5,0-0.9-0.4-0.9-0.9c0,0,0,0,0,0c0-0.5,0.4-0.9,0.8-0.9
	c0,0,0,0,0,0c2.1,0,4.1,0,6.2,0c0.5,0,0.9,0.4,0.9,0.8c0,0,0,0,0,0c0,0.5-0.4,0.9-0.8,0.9c0,0,0,0,0,0c-0.9,0-1.7,0-2.7,0
	c0.2,0.2,0.4,0.5,0.6,0.8c0.4,0.7,1.2,1.2,2,1c6.4,0,12.9,0,19.3,0h0.5c-0.1-0.2-0.1-0.3-0.2-0.5c-0.5-1.2-0.9-2.4-1.4-3.6
	c0-0.2-0.3-0.4-0.5-0.3c-1.1,0-2.3,0-3.4,0c-0.4,0-0.8-0.3-0.9-0.7c-0.1-0.4,0-0.7,0.3-0.9C32.5,0.1,32.8,0,33,0c1.3,0,2.7,0,4,0
	c0.5-0.1,1,0.2,1.1,0.8c0,0,0,0,0,0c1.5,3.9,3,7.8,4.5,11.7C42.7,12.6,42.7,12.7,42.8,12.8z M41.8,15.2c-4.2,2.1-6,7.1-4.1,11.4
	c2,4.4,7.2,6.4,11.6,4.4c0,0,0.1,0,0.1-0.1c4.4-2.1,6.3-7.3,4.2-11.7c0,0,0-0.1-0.1-0.1c-1.8-3.8-6.1-5.7-10.2-4.6
	c0,0.1,0.1,0.3,0.1,0.4c1,2.5,2,5.1,2.9,7.6c0.2,0.4,0.1,1-0.4,1.2c0,0-0.1,0-0.1,0c-0.5,0.2-1-0.1-1.2-0.5c0,0,0-0.1,0-0.1
	c-0.6-1.5-1.2-3-1.8-4.5L41.8,15.2z M12.9,14.5c-3.4-1-7.2,0.2-9.3,3.1c-2.4,3.1-2.4,7.4-0.1,10.6c2.4,3.2,6.5,4.4,10.2,2.9
	c3-1.2,5.7-4.7,5.5-7.3h-8.5c-1,0-1.3-0.5-1-1.4c0.8-2.2,1.7-4.3,2.5-6.5L12.9,14.5z M18.5,8l9.7,13.5L37.9,8H18.5z M17,8.9
	c-0.1,0.1-0.1,0.2-0.2,0.3c-0.5,1.3-1,2.5-1.5,3.8c-0.2,0.5-0.2,0.5,0.3,0.7c0.1,0,0.2,0.1,0.3,0.1c2,1.2,3.6,3,4.5,5.2
	c0.4,1,0.6,2,0.9,3h5.2L17,8.9z M19.3,22.1c-0.3-3-2.1-5.6-4.8-6.9l-2.6,6.9H19.3z"/>
</svg>
