<svg id="Layer_1" data-name="Layer 1" xmlns="http://www.w3.org/2000/svg" viewBox="0 0 416.61 65.89"><defs><style>.cls-1{fill:#ee2b28;}.cls-2{fill:#faa432;}.cls-3{fill:none;}.cls-4{fill:#d1d3d4;}.cls-5{fill:#bcbcbc;}.cls-6{fill:#00a651;opacity:0.32;}</style></defs><path class="cls-1" d="M59.37,56.32C59.37,65,53,70,40.29,70H16.94V18.78h21.9c11.32,0,17.84,4.83,17.84,13.17a11.9,11.9,0,0,1-7.76,11.64C55.45,45.05,59.37,49.37,59.37,56.32ZM22.31,23.24V41.83H38.48c8.12,0,12.84-3.15,12.84-9.29s-4.72-9.3-12.84-9.3ZM54,55.88c0-6.66-4.86-9.59-13.78-9.59H22.31V65.54H40.22C49.14,65.54,54,62.61,54,55.88Z" transform="translate(-16.94 -5.79)"/><path class="cls-1" d="M65.32,19.37a3.73,3.73,0,0,1,3.77-3.66,3.67,3.67,0,0,1,3.77,3.58,3.77,3.77,0,0,1-7.54.08Zm1.16,12.14h5.15V70H66.48Z" transform="translate(-16.94 -5.79)"/><path class="cls-1" d="M94.73,50.68l-9,8.34V70H80.59V15.71h5.15v36.8l22.77-21h6.38L98.58,47.24,116.42,70h-6.31Z" transform="translate(-16.94 -5.79)"/><path class="cls-1" d="M153.16,52.37h-31.9c.58,8,6.67,13.39,15,13.39a15,15,0,0,0,11.67-5.05l2.9,3.36c-3.4,4.1-8.7,6.3-14.72,6.3-11.89,0-20-8.2-20-19.61s7.9-19.54,18.63-19.54,18.5,8,18.5,19.54C153.24,51.2,153.16,51.78,153.16,52.37Zm-31.9-3.88h27.05c-.66-7.54-6.1-12.81-13.57-12.81S121.91,41,121.26,48.49Z" transform="translate(-16.94 -5.79)"/><path class="cls-2" d="M293.71,18.6,276.59,69.82h-5.65L256.07,26.13,241.13,69.82h-5.58L218.43,18.6H224l14.64,44.05,15.16-44h5l14.94,44.27L288.56,18.6Z" transform="translate(-16.94 -5.79)"/><path class="cls-2" d="M326.94,46V69.82H322v-6c-2.32,3.95-6.81,6.36-13.12,6.36C300.26,70.18,295,65.65,295,59c0-5.93,3.77-10.9,14.73-10.9H321.8V45.74c0-6.58-3.7-10.17-10.81-10.17a19.33,19.33,0,0,0-12.69,4.54L296,36.23c3.84-3.29,9.5-5.19,15.52-5.19C321.36,31,326.94,36,326.94,46Zm-5.14,12.3V52h-12c-7.4,0-9.79,2.93-9.79,6.88,0,4.47,3.55,7.25,9.65,7.25C315.49,66.09,319.77,63.31,321.8,58.26Z" transform="translate(-16.94 -5.79)"/><path class="cls-2" d="M355.63,67.48a12.24,12.24,0,0,1-8.05,2.7c-7.18,0-11.17-4.09-11.17-11.19V35.72h-6.82V31.33h6.82V22.92h5.15v8.41h11.6v4.39h-11.6v23c0,4.53,2.32,7,6.6,7a8.48,8.48,0,0,0,5.66-2Z" transform="translate(-16.94 -5.79)"/><path class="cls-2" d="M358.41,50.57c0-11.48,8.27-19.53,19.65-19.53,6.46,0,11.9,2.56,14.94,7.61l-3.84,2.63a12.93,12.93,0,0,0-11.1-5.71c-8.34,0-14.43,6-14.43,15s6.09,15,14.43,15a12.86,12.86,0,0,0,11.1-5.63L393,62.57c-3,5-8.48,7.61-14.94,7.61C366.68,70.18,358.41,62.06,358.41,50.57Z" transform="translate(-16.94 -5.79)"/><path class="cls-2" d="M433.55,47.5V69.82H428.4V48c0-8.12-4.2-12.29-11.46-12.29-8.19,0-13.34,5.12-13.34,13.9v20.2h-5.15V15.52h5.15V38.06c2.83-4.46,7.83-7,14.29-7C427.17,31,433.55,36.45,433.55,47.5Z" transform="translate(-16.94 -5.79)"/><polygon class="cls-3" points="150.34 42.18 169.18 15.63 131.49 15.63 150.34 42.18"/><path class="cls-3" d="M216.86,43.27c-4.42-9-14.19-11-19.83-8.93a3.07,3.07,0,0,0,.3.77c1.91,5,3.82,9.93,5.72,14.94a1.76,1.76,0,0,1-.68,2.38.24.24,0,0,0-.15.08,1.68,1.68,0,0,1-2.29-1.23c-1.15-3-2.29-5.93-3.44-8.93l-2.67-6.77A17.26,17.26,0,0,0,185.89,58a17,17,0,0,0,22.58,8.7c.08-.08.15-.08.31-.15A17.28,17.28,0,0,0,217,43.58C216.94,43.5,216.94,43.35,216.86,43.27Z" transform="translate(-16.94 -5.79)"/><path class="cls-3" d="M154.51,49.12h9.26L145.46,23.26a4.51,4.51,0,0,0-.3.69c-1,2.39-2.76,7-2.9,7.42C149.23,34.11,153.94,40.69,154.51,49.12Z" transform="translate(-16.94 -5.79)"/><path class="cls-4" d="M221.29,45.2A20.66,20.66,0,0,0,195.73,31l-.23-.7c-2.9-7.69-5.87-15.31-8.77-22.93a1.91,1.91,0,0,0-2.21-1.54h-7.86a4.82,4.82,0,0,0-1.22.23,1.61,1.61,0,0,0-.69,1.85,1.67,1.67,0,0,0,1.76,1.31h6.63a.83.83,0,0,1,.92.69c.84,2.31,1.75,4.69,2.67,7a6.3,6.3,0,0,0,.31.93H186c-12.51,0-25.1,0-37.61.07-1.83,0-3.13-.3-4-2a9.13,9.13,0,0,0-1.07-1.46h5.27a1.64,1.64,0,0,0,1.6-1.69v-.08A1.64,1.64,0,0,0,148.51,11H136.38a1.64,1.64,0,0,0-1.6,1.7,1.7,1.7,0,0,0,1.68,1.69h1.91a1.07,1.07,0,0,1,.91.46c1.15,1.54,2.29,3.08,3.43,4.54a1.1,1.1,0,0,1,.16,1.08c-1.29,3.21-3.8,9.78-3.84,9.9l.23.06c.47.1.94.22,1.39.35a17,17,0,0,1,1.61.57c.14-.41,1.93-5,2.9-7.42a4.51,4.51,0,0,1,.3-.69l18.31,25.86h-9.26c0,.57.08,1.15.08,1.74,0,.23,0,.49,0,.78s0,.54,0,.83v.18H167a2.43,2.43,0,0,0,2-1.14L179.33,37c3.13-4.31,6.18-8.7,9.31-13.08a3.46,3.46,0,0,1,.45-.62l3.44,8.93a21,21,0,0,0-9.46,27.94A20.66,20.66,0,0,0,209,70.29,20.93,20.93,0,0,0,221.29,45.2Zm-54,2.77L148.44,21.41h37.68Zm41.5,18.55c-.16.07-.23.07-.31.15A17,17,0,0,1,185.89,58a17.26,17.26,0,0,1,7.93-22.39l2.67,6.77c1.15,3,2.29,5.93,3.44,8.93a1.68,1.68,0,0,0,2.29,1.23.24.24,0,0,1,.15-.08,1.76,1.76,0,0,0,.68-2.38c-1.9-5-3.81-9.93-5.72-14.94a3.07,3.07,0,0,1-.3-.77c5.64-2.07,15.41-.07,19.83,8.93.08.08.08.23.15.31A17.28,17.28,0,0,1,208.78,66.52Z" transform="translate(-16.94 -5.79)"/><path class="cls-5" d="M139.26,30.45l-.23-.06h0Z" transform="translate(-16.94 -5.79)"/><path class="cls-6" d="M139.26,30.45l-.23-.06h0Z" transform="translate(-16.94 -5.79)"/><path class="cls-5" d="M142.26,31.37a17,17,0,0,0-1.61-.57,14.6,14.6,0,0,1,1.6.6Z" transform="translate(-16.94 -5.79)"/></svg>